<mxfile host="app.diagrams.net" modified="2024-05-28T15:55:28.275Z" agent="Mozilla/5.0 (Windows NT 10.0; Win64; x64; rv:126.0) Gecko/20100101 Firefox/126.0" version="24.4.9" etag="McUVv8_eFoUuJCMsBKxK" type="github">
  <diagram name="PÃ¡gina-1" id="Eows-cWkTJ6RKNIqjTfI">
    <mxGraphModel>
      <root>
        <mxCell id="0" />
        <mxCell id="1" parent="0" />
      </root>
    </mxGraphModel>
  </diagram>
</mxfile>
